# xmcd
#
# Track frame offsets:
#	150
#	17587
#	29602
#	41902
#	54052
#	63112
#	75262
#	94927
#	109477
#	119152
#	137452
#	155227
#
# Disc length: 2199 seconds
#
# Revision: 1
# Processed by: cddbd v1.5.2PL0 Copyright (c) Steve Scherf et al.
# Submitted via: EasyCDDAExtractor 5.1.0
#
DISCID=9d08950c
DTITLE=The Pedro Delgados - Do it like that
DYEAR=2008
DGENRE=Bluegrass
TTITLE0=Do it like that
TTITLE1=I wanna be your daddy
TTITLE2=Little Maggie
TTITLE3=John Pearse
TTITLE4=Kick the can
TTITLE5=Tremendous ramblin
TTITLE6=In front of your eyes
TTITLE7=Mary
TTITLE8=See my love
TTITLE9=Let it slide
TTITLE10=Rosie
TTITLE11=Fuck the country
EXTD=
EXTT0=
EXTT1=
EXTT2=
EXTT3=
EXTT4=
EXTT5=
EXTT6=
EXTT7=
EXTT8=
EXTT9=
EXTT10=
EXTT11=
PLAYORDER=
